<svg xmlns="http://www.w3.org/2000/svg" viewBox="0 0 660 210" fill="none">
    <defs>
        <linearGradient id="vercel" x1="0%" y1="0%" x2="100%" y2="20%">
            <stop offset="0%" stop-color="#0068C1"/>
            <stop offset="100%" stop-color="#00C1C1"/>
        </linearGradient>
    </defs>
    <path fill="url(#vercel)" d="M329.3 64c-23.4 0-40.3 15.3-40.3 38.2 0 22.9 19 38.2 42.4 38.2 14.2 0 26.6-5.6 34.4-15l-16.2-9.4c-4.3 4.7-10.8 7.4-18.1 7.4-10.2 0-18.8-5.3-22-13.8h59.5c.5-2.4.7-4.8.7-7.4C369.6 79.2 352.8 64 329.3 64L329.3 64zM309.2 94.7c2.7-8.5 9.9-13.8 20.1-13.8 10.2 0 17.4 5.3 20.1 13.8H309.2zM557.8 64c-23.4 0-40.3 15.3-40.3 38.2 0 22.9 19 38.2 42.4 38.2 14.2 0 26.6-5.6 34.4-15l-16.2-9.4c-4.3 4.7-10.8 7.4-18.1 7.4-10.2 0-18.8-5.3-22-13.8h59.5c.5-2.4.7-4.8.7-7.4C598.2 79.2 581.3 64 557.8 64L557.8 64zM537.8 94.7c2.7-8.5 9.9-13.8 20.1-13.8 10.2 0 17.4 5.3 20.1 13.8H537.8L537.8 94.7zM455 102.2c0 12.7 8.3 21.2 21.2 21.2 8.7 0 15.3-4 18.7-10.4l16.3 9.4c-6.7 11.2-19.4 18-35 18-23.5 0-40.3-15.3-40.3-38.2 0-22.9 16.9-38.2 40.3-38.2 15.6 0 28.2 6.8 35 18l-16.3 9.4c-3.4-6.5-9.9-10.4-18.7-10.4C463.3 80.9 455 89.4 455 102.2zM630 40.6v97.6h-19.1v-97.6H630zM108.4 30l78.4 135.8H30L108.4 30zM304.5 40.6 245.7 142.5 186.9 40.6h22.1l36.8 63.7 36.8-63.7H304.5zM429.5 66.1v20.6c-2.1-.6-4.4-1-6.8-1-12.3 0-21.2 8.5-21.2 21.2v31.4h-19.1V66.1h19.1v19.5C401.5 74.8 414 66.1 429.5 66.1z" />
</svg>